<svg transform="scale(1)" version="1.1" id="Layer_1" xmlns="http://www.w3.org/2000/svg" xmlns:xlink="http://www.w3.org/1999/xlink" x="0px" y="0px" viewBox="0 0 500 500" xml:space="preserve" class="show_show__wrapper__graphic__5Waiy "><title>React</title><style type="text/css">
	.st0{fill:#D1D3D4;}
	.st1{fill:#FFFFFF;}
	.st2{fill:#231F20;}
	.st3{fill:#00397F;}
</style><path class="st0" id="floor" d="M469.2,381.6H30.8c-0.4,0-0.7-0.3-0.7-0.7s0.3-0.7,0.7-0.7l0,0h438.3c0.4,0,0.7,0.3,0.7,0.7
	S469.6,381.6,469.2,381.6z"></path><g id="Logistics"><rect class="st1" x="299.6" y="277.1" width="81.5" height="103.8"></rect><path class="st0" d="M381.1,381.6h-81.5c-0.4,0-0.7-0.3-0.7-0.7l0,0V277.1c0-0.4,0.3-0.7,0.7-0.7c0,0,0,0,0,0h81.5
		c0.4,0,0.7,0.3,0.7,0.7c0,0,0,0,0,0v103.8C381.8,381.3,381.5,381.6,381.1,381.6L381.1,381.6z M300.3,380.2h80.1V277.8h-80.1V380.2z
		"></path><rect class="st1" x="307.2" y="284.2" width="66.2" height="89.6"></rect><path class="st0" d="M373.4,374.5h-66.2c-0.4,0-0.7-0.3-0.7-0.7l0,0v-89.6c0-0.4,0.3-0.7,0.7-0.7l0,0h66.2c0.4,0,0.7,0.3,0.7,0.7
		l0,0v89.6C374.1,374.2,373.8,374.5,373.4,374.5z M308,373.1h64.7v-88.2H308V373.1z"></path><polygon class="st1" points="373.4,365.2 373.4,373.8 368,373.8 339,335.6 333.1,327.9 307.2,293.9 307.2,284.2 311.7,284.2 
		339,320 344.9,327.9 	"></polygon><path class="st0" d="M373.4,374.5H368c-0.2,0-0.4-0.1-0.6-0.3l-60.8-80c-0.1-0.1-0.1-0.3-0.1-0.4v-9.7c0-0.4,0.3-0.7,0.7-0.7l0,0
		h4.5c0.2,0,0.4,0.1,0.6,0.3l33.2,43.7l28.5,37.4c0.1,0.1,0.1,0.3,0.1,0.4v8.6C374.2,374.2,373.8,374.5,373.4,374.5
		C373.4,374.5,373.4,374.5,373.4,374.5z M368.4,373.1h4.3v-7.6l-34.3-45l-27-35.6H308v8.7L368.4,373.1z"></path><polygon class="st1" points="373.4,284.2 373.4,290.5 344.9,327.9 339,335.6 310,373.8 307.2,373.8 307.2,361.8 333.1,327.9 
		339,320 366.3,284.2 	"></polygon><path class="st0" d="M310,374.5h-2.8c-0.4,0-0.7-0.3-0.7-0.7l0,0v-12c0-0.2,0.1-0.3,0.1-0.4l59.1-77.6c0.1-0.2,0.3-0.3,0.6-0.3h7.1
		c0.4,0,0.7,0.3,0.7,0.7l0,0v6.3c0,0.2-0.1,0.3-0.1,0.4l-63.4,83.4C310.4,374.4,310.2,374.5,310,374.5z M308,373.1h1.7l63-82.9v-5.3
		h-6L308,362V373.1z"></path><rect class="st1" x="197.5" y="277.1" width="102" height="103.8"></rect><path class="st0" d="M299.6,381.6h-102c-0.4,0-0.7-0.3-0.7-0.7l0,0V277.1c0-0.4,0.3-0.7,0.7-0.7c0,0,0,0,0,0h102
		c0.4,0,0.7,0.3,0.7,0.7v103.8C300.3,381.3,300,381.6,299.6,381.6C299.6,381.6,299.6,381.6,299.6,381.6z M198.3,380.2h100.6V277.8
		H198.3V380.2z"></path><rect class="st1" x="204.9" y="284.2" width="87.2" height="89.6"></rect><path class="st0" d="M292.2,374.5h-87.2c-0.4,0-0.7-0.3-0.7-0.7l0,0v-89.6c0-0.4,0.3-0.7,0.7-0.7l0,0h87.2c0.4,0,0.7,0.3,0.7,0.7
		l0,0v89.6C292.9,374.2,292.6,374.5,292.2,374.5z M205.7,373.1h85.8v-88.2h-85.8L205.7,373.1z"></path><polygon class="st1" points="204.9,365.2 204.9,373.8 212.1,373.8 250.3,335.6 258.1,327.9 292.2,293.9 292.2,284.2 286.2,284.2 
		250.3,320 242.5,327.9 	"></polygon><path class="st0" d="M212.1,374.5h-7.1c-0.4,0-0.7-0.3-0.7-0.7l0,0v-8.6c0-0.2,0.1-0.4,0.2-0.5l45.4-45.2l36-35.9
		c0.1-0.1,0.3-0.2,0.5-0.2h5.9c0.4,0,0.7,0.3,0.7,0.7l0,0v9.7c0,0.2-0.1,0.4-0.2,0.5l-80.1,79.9
		C212.5,374.5,212.3,374.5,212.1,374.5z M205.7,373.1h6.1l79.7-79.5v-8.7h-4.9L243,328.4l-37.4,37.1L205.7,373.1z"></path><polygon class="st1" points="204.9,284.2 204.9,290.5 242.5,327.9 250.3,335.6 288.5,373.8 292.2,373.8 292.2,361.8 258.1,327.9 
		250.3,320 214.3,284.2 	"></polygon><path class="st0" d="M292.2,374.5h-3.6c-0.2,0-0.4-0.1-0.5-0.2l-46-45.9L204.4,291c-0.1-0.1-0.2-0.3-0.2-0.5v-6.3
		c0-0.4,0.3-0.7,0.7-0.7l0,0h9.4c0.2,0,0.4,0.1,0.5,0.2l43.9,43.7l34,34c0.1,0.1,0.2,0.3,0.2,0.5v12
		C292.9,374.2,292.5,374.5,292.2,374.5z M288.8,373.1h2.6v-11l-41.7-41.6L214,284.9h-8.3v5.3l45.2,45L288.8,373.1z"></path><rect class="st1" x="339" y="173.3" width="81.5" height="103.8"></rect><path class="st0" d="M420.5,277.8H339c-0.4,0-0.7-0.3-0.7-0.7l0,0V173.3c0-0.4,0.3-0.7,0.7-0.7l0,0h81.5c0.4,0,0.7,0.3,0.7,0.7l0,0
		v103.8C421.2,277.5,420.9,277.8,420.5,277.8L420.5,277.8z M339.7,276.4h80.1V174h-80.1V276.4z"></path><rect class="st1" x="346.7" y="180.4" width="66.2" height="89.6"></rect><path class="st0" d="M412.9,270.7h-66.2c-0.4,0-0.7-0.3-0.7-0.7v-89.6c0-0.4,0.3-0.7,0.7-0.7l0,0h66.2c0.4,0,0.7,0.3,0.7,0.7l0,0
		V270C413.6,270.4,413.3,270.7,412.9,270.7C412.9,270.7,412.9,270.7,412.9,270.7z M347.4,269.3h64.7v-88.2h-64.7L347.4,269.3z"></path><polygon class="st1" points="412.9,261.4 412.9,270 407.4,270 378.4,231.8 372.5,224 346.7,190 346.7,180.4 351.2,180.4 
		378.4,216.2 384.4,224 	"></polygon><path class="st0" d="M412.9,270.7h-5.4c-0.2,0-0.4-0.1-0.6-0.3l-60.8-79.9c-0.1-0.1-0.1-0.3-0.1-0.5v-9.7c0-0.4,0.3-0.7,0.7-0.7
		l0,0h4.5c0.2,0,0.4,0.1,0.6,0.3l33.2,43.7l28.4,37.4c0.1,0.1,0.1,0.3,0.1,0.4v8.6C413.6,270.4,413.2,270.7,412.9,270.7z
		 M407.8,269.3h4.3v-7.6l-34.3-45l-27-35.6h-3.4v8.7L407.8,269.3z"></path><polygon class="st1" points="412.9,180.4 412.9,186.6 384.4,224 378.4,231.8 349.5,270 346.7,270 346.7,258 372.5,224 378.4,216.2 
		405.8,180.4 	"></polygon><path class="st0" d="M349.5,270.7h-2.8c-0.4,0-0.7-0.3-0.7-0.7v-12c0-0.2,0.1-0.3,0.1-0.4l59.1-77.6c0.1-0.2,0.3-0.3,0.6-0.3h7.1
		c0.4,0,0.7,0.3,0.7,0.7l0,0v6.3c0,0.2-0.1,0.3-0.1,0.4L350,270.4C349.9,270.6,349.7,270.7,349.5,270.7z M347.4,269.3h1.7l63-82.9
		v-5.3h-6l-58.7,77.2L347.4,269.3z"></path><rect class="st1" x="237" y="173.3" width="102" height="103.8"></rect><path class="st0" d="M339,277.8H237c-0.4,0-0.7-0.3-0.7-0.7l0,0V173.3c0-0.4,0.3-0.7,0.7-0.7l0,0h102c0.4,0,0.7,0.3,0.7,0.7
		c0,0,0,0,0,0v103.8C339.7,277.5,339.4,277.8,339,277.8C339,277.8,339,277.8,339,277.8z M237.7,276.4h100.6V174H237.7V276.4z"></path><rect class="st1" x="244.4" y="180.4" width="87.2" height="89.6"></rect><path class="st0" d="M331.6,270.7h-87.2c-0.4,0-0.7-0.3-0.7-0.7c0,0,0,0,0,0v-89.6c0-0.4,0.3-0.7,0.7-0.7l0,0h87.2
		c0.4,0,0.7,0.3,0.7,0.7l0,0V270C332.3,270.4,332,270.7,331.6,270.7z M245.1,269.3h85.8v-88.2h-85.8L245.1,269.3z"></path><polygon class="st1" points="244.4,261.4 244.4,270 251.5,270 289.7,231.8 297.6,224 331.6,190 331.6,180.4 325.7,180.4 
		289.7,216.2 281.9,224 	"></polygon><path class="st0" d="M251.5,270.7h-7.1c-0.4,0-0.7-0.3-0.7-0.7c0,0,0,0,0,0v-8.6c0-0.2,0.1-0.4,0.2-0.5l45.4-45.2l35.9-35.9
		c0.1-0.1,0.3-0.2,0.5-0.2h5.9c0.4,0,0.7,0.3,0.7,0.7l0,0v9.7c0,0.2-0.1,0.4-0.2,0.5l-80.1,80C251.9,270.6,251.7,270.7,251.5,270.7z
		 M245.1,269.3h6.1l79.7-79.5v-8.7H326l-43.6,43.5l-37.3,37.1L245.1,269.3z"></path><polygon class="st1" points="244.4,180.4 244.4,186.6 281.9,224 289.7,231.8 328,270 331.6,270 331.6,258 297.6,224 289.7,216.2 
		253.7,180.4 	"></polygon><path class="st0" d="M331.6,270.7H328c-0.2,0-0.4-0.1-0.5-0.2l-46.1-45.9l-37.5-37.4c-0.1-0.1-0.2-0.3-0.2-0.5v-6.3
		c0-0.4,0.3-0.7,0.7-0.7l0,0h9.4c0.2,0,0.4,0.1,0.5,0.2l43.8,43.7l34,34c0.1,0.1,0.2,0.3,0.2,0.5v12
		C332.3,270.4,332,270.7,331.6,270.7z M328.3,269.3h2.6v-11l-41.7-41.6l-35.8-35.6h-8.3v5.3l45.2,45L328.3,269.3z"></path><rect class="st1" x="381.1" y="277.1" width="81.5" height="103.8"></rect><path class="st0" d="M462.6,381.6h-81.5c-0.4,0-0.7-0.3-0.7-0.7c0,0,0,0,0,0V277.1c0-0.4,0.3-0.7,0.7-0.7h81.5
		c0.4,0,0.7,0.3,0.7,0.7c0,0,0,0,0,0v103.8C463.4,381.3,463,381.6,462.6,381.6L462.6,381.6z M381.8,380.2h80.1V277.8h-80.1V380.2z"></path><rect class="st1" x="388.8" y="284.2" width="66.2" height="89.6"></rect><path class="st0" d="M455,374.5h-66.2c-0.4,0-0.7-0.3-0.7-0.7l0,0v-89.6c0-0.4,0.3-0.7,0.7-0.7l0,0H455c0.4,0,0.7,0.3,0.7,0.7
		c0,0,0,0,0,0v89.6C455.7,374.2,455.4,374.5,455,374.5C455,374.5,455,374.5,455,374.5z M389.5,373.1h64.7v-88.2h-64.8L389.5,373.1z"></path><polygon class="st1" points="454.9,365.2 454.9,373.8 449.5,373.8 420.5,335.6 414.6,327.9 388.8,293.9 388.8,284.2 393.3,284.2 
		420.5,320 426.5,327.9 	"></polygon><path class="st0" d="M455,374.5h-5.4c-0.2,0-0.4-0.1-0.6-0.3l-60.8-80c-0.1-0.1-0.2-0.3-0.1-0.4v-9.7c0-0.4,0.3-0.7,0.7-0.7l0,0
		h4.5c0.2,0,0.4,0.1,0.6,0.3l33.1,43.7l28.5,37.4c0.1,0.1,0.1,0.3,0.1,0.4v8.6C455.6,374.2,455.4,374.5,455,374.5z M449.9,373.1h4.4
		v-7.6l-34.3-45l-27-35.6h-3.4v8.7L449.9,373.1z"></path><polygon class="st1" points="454.9,284.2 454.9,290.5 426.5,327.9 420.5,335.6 391.5,373.8 388.8,373.8 388.8,361.8 414.6,327.9 
		420.5,320 447.9,284.2 	"></polygon><path class="st0" d="M391.5,374.5h-2.8c-0.4,0-0.7-0.3-0.7-0.7l0,0v-12c0-0.2,0.1-0.3,0.1-0.4l59.1-77.6c0.1-0.2,0.3-0.3,0.6-0.3
		h7.1c0.4,0,0.7,0.3,0.7,0.7c0,0,0,0,0,0v6.3c0,0.2,0,0.3-0.1,0.4l-63.4,83.4C392,374.4,391.8,374.5,391.5,374.5z M389.5,373.1h1.7
		l63-82.9v-5.3h-6l-58.7,77.2L389.5,373.1z"></path><rect class="st1" x="314" y="295.5" width="28.4" height="24.2"></rect><path class="st0" d="M342.5,320.5H314c-0.4,0-0.7-0.3-0.7-0.7l0,0v-24.2c0-0.4,0.3-0.7,0.7-0.7l0,0h28.4c0.4,0,0.7,0.3,0.7,0.7l0,0
		v24.2C343.2,320.1,342.9,320.5,342.5,320.5z M314.8,319h27v-22.7h-27V319z"></path><path class="st0" d="M337.6,302.3h-18.7c-0.4,0-0.7-0.3-0.7-0.7s0.3-0.7,0.7-0.7h18.7c0.4,0,0.7,0.3,0.7,0.7S338,302.3,337.6,302.3
		L337.6,302.3z"></path><path class="st0" d="M337.6,308.4h-18.7c-0.4,0-0.7-0.3-0.7-0.7s0.3-0.7,0.7-0.7h18.7c0.4,0,0.7,0.3,0.7,0.7S338,308.4,337.6,308.4
		L337.6,308.4z"></path><path class="st0" d="M331.4,314.5h-12.5c-0.4,0-0.7-0.4-0.6-0.8c0-0.3,0.3-0.6,0.6-0.6h12.5c0.4,0,0.8,0.2,0.8,0.6
		c0,0.4-0.2,0.8-0.6,0.8C331.5,314.5,331.5,314.5,331.4,314.5z"></path><rect class="st1" x="398.6" y="295.5" width="28.4" height="24.2"></rect><path class="st0" d="M427.1,320.5h-28.4c-0.4,0-0.7-0.3-0.7-0.7l0,0v-24.2c0-0.4,0.3-0.7,0.7-0.7l0,0h28.4c0.4,0,0.7,0.3,0.7,0.7
		l0,0v24.2C427.8,320.1,427.5,320.5,427.1,320.5L427.1,320.5z M399.3,319h27v-22.7h-27V319z"></path><path class="st0" d="M422.2,302.3h-18.7c-0.4,0-0.7-0.3-0.7-0.7s0.3-0.7,0.7-0.7l0,0h18.7c0.4,0,0.7,0.3,0.7,0.7
		S422.6,302.3,422.2,302.3z"></path><path class="st0" d="M422.2,308.4h-18.7c-0.4,0-0.7-0.3-0.7-0.7s0.3-0.7,0.7-0.7l0,0h18.7c0.4,0,0.7,0.3,0.7,0.7
		S422.6,308.4,422.2,308.4z"></path><path class="st0" d="M416,314.5h-12.5c-0.4,0-0.8-0.2-0.8-0.6c0-0.4,0.2-0.8,0.6-0.8c0.1,0,0.1,0,0.2,0H416c0.4,0,0.8,0.2,0.8,0.6
		c0,0.4-0.2,0.8-0.6,0.8C416.1,314.5,416.1,314.5,416,314.5z"></path><rect class="st1" x="356.2" y="190.2" width="28.4" height="24.2"></rect><path class="st0" d="M384.6,215.1h-28.5c-0.4,0-0.7-0.3-0.7-0.7c0,0,0,0,0,0v-24.2c0-0.4,0.3-0.7,0.7-0.7c0,0,0,0,0,0h28.5
		c0.4,0,0.7,0.3,0.7,0.7l0,0v24.2C385.4,214.8,385,215.1,384.6,215.1L384.6,215.1z M356.9,213.7h27v-22.8h-27V213.7z"></path><path class="st0" d="M379.8,196.9h-18.7c-0.4,0-0.8-0.2-0.8-0.6c0-0.4,0.2-0.8,0.6-0.8c0.1,0,0.1,0,0.2,0h18.7
		c0.4,0,0.8,0.2,0.8,0.6c0,0.4-0.2,0.8-0.6,0.8C379.9,196.9,379.8,196.9,379.8,196.9z"></path><path class="st0" d="M379.8,203h-18.7c-0.4,0-0.7-0.3-0.7-0.7s0.3-0.7,0.7-0.7l0,0h18.7c0.4,0,0.7,0.3,0.7,0.7S380.2,203,379.8,203
		z"></path><path class="st0" d="M373.6,209.1h-12.5c-0.4,0-0.7-0.3-0.7-0.7s0.3-0.7,0.7-0.7l0,0h12.5c0.4,0,0.7,0.3,0.7,0.7
		S374,209.1,373.6,209.1z"></path></g><g id="Character"><path class="st2" d="M88.2,149.6c0,0-51.7,77.2-50.6,78s25.3,10.7,25.3,10.7l30.4-29.5L88.2,149.6z"></path><path class="st2" d="M62.8,239c-0.1,0-0.2,0-0.3-0.1c-4.1-1.7-24.4-10-25.5-10.8c-0.8-0.6-1.2-0.9,24.7-40.2
		c12.7-19.2,25.6-38.5,25.7-38.7c0.2-0.3,0.7-0.4,1-0.2c0.2,0.1,0.3,0.3,0.3,0.5l5.1,59.2c0,0.2-0.1,0.4-0.2,0.6l-30.4,29.5
		C63.2,238.9,63,239,62.8,239z M38.4,227.2c2.6,1.3,15.4,6.6,24.3,10.2l29.9-28.9l-4.9-56.9C68.4,180.4,40.8,222.1,38.4,227.2z"></path><path class="st2" d="M170.9,150l33.2,56.5c0,0-7.6,18.2-16.6,16s-31.3-49.7-31.3-49.7L170.9,150z"></path><path class="st2" d="M189.1,223.4c-0.6,0-1.1-0.1-1.7-0.2c-9.3-2.2-30.9-48.1-31.8-50.1c-0.1-0.2-0.1-0.5,0-0.7l14.7-22.8
		c0.1-0.2,0.4-0.3,0.6-0.3l0,0c0.2,0,0.5,0.1,0.6,0.4l33.2,56.5c0.1,0.2,0.1,0.4,0,0.6C204.5,207.5,197.8,223.4,189.1,223.4z
		 M157.1,172.9c6.3,13.4,23.6,47.2,30.7,48.9c7.7,1.9,14.6-12.9,15.6-15.2L171,151.4L157.1,172.9z"></path><polygon class="st2" points="90.6,227.5 84.3,388 106.2,388 125.8,273.6 136.7,386 159.1,386 159.8,238.3 	"></polygon><path class="st2" d="M106.2,388.7H84.3c-0.2,0-0.4-0.1-0.5-0.2c-0.1-0.1-0.2-0.3-0.2-0.5l6.3-160.4c0-0.2,0.1-0.4,0.3-0.5
		c0.2-0.1,0.4-0.2,0.6-0.2l69.2,10.7c0.3,0.1,0.6,0.4,0.6,0.7L159.8,386c0,0.4-0.3,0.7-0.7,0.7h-22.4c-0.4,0-0.7-0.3-0.7-0.7
		l-10.4-107.1l-18.7,109.2C106.8,388.4,106.5,388.7,106.2,388.7z M85,387.3h20.6L125,273.4c0.1-0.4,0.4-0.6,0.7-0.6
		c0.4,0,0.6,0.3,0.7,0.6l10.9,111.8h21l0.7-146.4l-67.8-10.5L85,387.3z"></path><path class="st3" d="M132.5,362.8c2.5,0.4,17.4,3.3,18.6,0c0.7-1.9,2-3.6,3.7-4.8h9.5l-4.4,44.5c0,0,20.8,12.8,20.8,15
		s-35.2-5.1-35.2-5.1l-0.8,3.5l-6.2-0.7L132.5,362.8z"></path><path class="st3" d="M111.5,362.8c-2.5,0.4-17.4,3.3-18.6,0c-0.7-1.9-2-3.6-3.7-4.8h-9.5l4.4,44.5c0,0-20.8,12.8-20.8,15
		s35.2-5.1,35.2-5.1l0.8,3.5l6.2-0.7L111.5,362.8z"></path><path class="st2" d="M150.7,145.5c0,0-42.6-4.3-50.8,2.5s-11.7,96.2-11.7,96.2l71.1,2.6C159.3,246.8,166.2,160.5,150.7,145.5z"></path><path class="st2" d="M159.3,247.5L159.3,247.5l-71.1-2.6c-0.2,0-0.4-0.1-0.5-0.2c-0.1-0.1-0.2-0.3-0.2-0.5
		c0.1-3.7,3.5-89.8,12-96.7s49.6-2.8,51.4-2.6c0.2,0,0.3,0.1,0.4,0.2c6.6,6.4,10.1,25.5,10.3,56.8c0.2,23.2-1.5,44.9-1.6,45.1
		C160,247.2,159.7,247.5,159.3,247.5C159.3,247.5,159.3,247.5,159.3,247.5z M88.9,243.5l69.7,2.5c0.6-8.1,6-85.5-8.2-99.8
		c-3.5-0.3-42.4-3.9-50.1,2.3C93.8,153.9,89.9,218.2,88.9,243.5L88.9,243.5z"></path><path class="st1" d="M126.8,193.5L126.8,193.5c-0.3,0-0.6-0.2-0.7-0.5c-2.5-6.8-14.9-40.6-13.5-43.8c0.2-0.4,0.6-0.5,0.9-0.4
		s0.5,0.6,0.4,0.9l0,0c-0.7,2,6,22.3,12.9,41c2.5-5.8,10.7-25.9,12.8-38.4c0.1-0.4,0.5-0.6,0.9-0.5c0.3,0.1,0.5,0.4,0.5,0.7
		c-2.5,14.9-13.5,40.1-13.7,40.4C127.4,193.4,127.1,193.5,126.8,193.5z"></path><path class="st3" d="M115.6,143l-1.3,32.8l-0.4,9l-0.5,12.6l-0.4,9l-1.2,28.4l-33.3-1.5c0,0,0.2-12.2,0.8-27.3
		c0.1-2.9,0.2-6,0.4-9.1c0.2-4.2,0.4-8.4,0.7-12.6c0.2-3.1,0.4-6.1,0.6-9c0.9-12.2,2.1-22.5,3.8-25.9
		C89.6,139.3,115.6,143,115.6,143z"></path><path class="st3" d="M173.2,185.6c0,4.2-0.1,8.4-0.2,12.6c-0.1,3.1-0.2,6.1-0.2,9c-0.5,17-1.3,31-1.3,31l-33.2-2.7l0.6-28.7
		l0.2-9.1l0.2-12.6l0.2-9l0.7-32.7c0,0,26-3.7,30.9,6.5c1.6,3.3,2.2,13.9,2.3,26.6C173.2,179.5,173.2,182.5,173.2,185.6z"></path><path class="st1" d="M93.3,262.3c-0.4,0-0.7-0.4-0.7-0.7c0-0.3,0.2-0.5,0.4-0.6c5.1-2.3,8.8-6.9,10.1-12.4c0-0.4,0.4-0.7,0.8-0.7
		c0.4,0,0.7,0.4,0.7,0.8c0,0.1,0,0.1,0,0.2c-1.3,5.9-5.3,10.9-10.9,13.4C93.5,262.3,93.4,262.3,93.3,262.3z"></path><path class="st1" d="M156.8,262.3c-0.2,0-0.3-0.1-0.4-0.1c-4-3.3-6.2-8.3-6.1-13.5c0-0.4,0.3-0.7,0.7-0.7c0.4,0,0.7,0.4,0.7,0.7
		c0,0,0,0,0,0c0,0.1-0.4,7.5,5.6,12.3c0.3,0.2,0.4,0.7,0.1,1C157.2,262.2,157,262.3,156.8,262.3L156.8,262.3z"></path><path class="st1" d="M125.7,271.6L125.7,271.6c-0.4,0-0.7-0.3-0.7-0.7l0,0c0-0.7,1.2-21.3,1.2-22.2c0-0.4,0.3-0.7,0.7-0.7
		c0,0,0.1,0,0.1,0c0.4,0,0.7,0.4,0.7,0.8c-0.3,5.9-1.2,21.5-1.2,22.1C126.4,271.3,126.1,271.6,125.7,271.6
		C125.7,271.6,125.7,271.6,125.7,271.6z"></path><path class="st1" d="M159.3,247.5L159.3,247.5l-71.1-2.6c-0.4,0-0.7-0.4-0.6-0.8c0-0.3,0.3-0.6,0.6-0.6l0,0l71.1,2.6
		c0.4,0,0.7,0.3,0.7,0.7C160,247.2,159.7,247.5,159.3,247.5L159.3,247.5z"></path><path class="st1" d="M80.9,175.4l33.3,0.4l-0.4,9l-33.5-0.4C80.5,181.4,80.7,178.3,80.9,175.4z"></path><path class="st1" d="M173.2,185.6l-34-0.4l0.2-9l33.8,0.4C173.2,179.5,173.2,182.5,173.2,185.6z"></path><path class="st1" d="M79.7,197l33.7,0.4l-0.4,9L79.3,206C79.4,203.2,79.5,200.1,79.7,197z"></path><path class="st1" d="M173,198.2c-0.1,3.1-0.2,6.1-0.2,9l-34-0.4l0.2-9.1L173,198.2z"></path><path class="st1" d="M146.6,119c-0.3-0.5,2.3-6.5,1.4-16s-18.2-12.8-24.4-12s-12.5,7.2-13.8,13.4s1.4,17.6,1.4,17.6L146.6,119z"></path><path class="st2" d="M111.2,122.7c-0.3,0-0.6-0.2-0.7-0.6c-0.1-0.5-2.8-11.4-1.4-17.8c1.4-6.8,8-13.2,14.4-14
		c4.3-0.6,15.2,0.9,21.2,5.7c2.3,1.6,3.7,4.1,4.1,6.9c0.5,4.9,0,9.9-1.2,14.7c-0.1,0.5-0.2,1-0.3,1.2c0.1,0.4-0.2,0.8-0.6,0.9
		c0,0-0.1,0-0.1,0L111.2,122.7L111.2,122.7z M125.7,91.7c-0.7,0-1.3,0-2,0.1c-5.8,0.7-11.9,6.8-13.2,12.9
		c-1.1,5.2,0.8,14.1,1.3,16.5l34.1-2.9c0.1-0.2,0.1-0.6,0.2-1c1.2-4.6,1.6-9.5,1.2-14.2c-0.3-2.4-1.6-4.5-3.5-5.9
		C139.2,93.5,130.8,91.7,125.7,91.7L125.7,91.7z"></path><path class="st1" d="M141.3,118.4c1-6,10.9-7.5,10.4-0.4c-0.1,2.5-1,4.8-2.7,6.7c-1.7,1.8-4.3,2.5-6.7,1.6"></path><path class="st2" d="M144.5,127.4c-0.8,0-1.6-0.2-2.4-0.5c-0.4-0.1-0.6-0.6-0.4-1s0.6-0.6,1-0.4c0,0,0.1,0,0.1,0
		c2.1,0.7,4.4,0.2,5.9-1.4c1.5-1.7,2.4-3.9,2.4-6.2c0.2-2.3-0.9-3.7-2.9-3.9c-2.9-0.3-5.5,1.6-6.1,4.5c-0.1,0.4-0.4,0.7-0.8,0.6
		c0,0,0,0,0,0c-0.4-0.1-0.7-0.4-0.6-0.8c0.7-3.6,4.1-6.1,7.8-5.7c2.2,0.2,4.4,1.8,4.2,5.5c-0.1,2.6-1.1,5.2-2.9,7.1
		C148.3,126.6,146.5,127.4,144.5,127.4z"></path><path class="st1" d="M116.5,118.4c-1-6-11-7.5-10.4-0.4c0.1,2.5,1,4.8,2.7,6.7c1.7,1.8,4.3,2.5,6.7,1.6"></path><path class="st2" d="M113.3,127.4c-1.9,0-3.8-0.8-5.1-2.2c-1.8-2-2.8-4.5-2.9-7.1c-0.3-3.7,2-5.2,4.2-5.5c3.7-0.4,7,2.1,7.8,5.7
		c0.1,0.4-0.2,0.8-0.6,0.8c-0.4,0.1-0.8-0.2-0.8-0.6c-0.6-2.8-3.2-4.7-6.1-4.5c-2,0.2-3,1.7-2.9,3.9c0.1,2.3,0.9,4.5,2.4,6.2
		c1.5,1.6,3.8,2.2,5.9,1.4c0.4-0.2,0.8,0,1,0.3c0.2,0.4,0,0.8-0.3,1c0,0-0.1,0-0.1,0C114.9,127.2,114.1,127.4,113.3,127.4z"></path><path class="st1" d="M116.5,145.8c0,0,3.6,8.6,11.4,8.6c4.5,0.1,8.7-2.1,11.1-5.9l-0.3-4.2l-0.8-9.8l-0.7-9.1h-18l-0.6,7.5
		l-0.2,2.4L116.5,145.8z"></path><path class="st2" d="M127.9,155.1c-8.3,0-12-8.6-12.1-9c0-0.1,0-0.3,0-0.4l1.9-10.5l0.8-9.8c0-0.4,0.3-0.7,0.7-0.7h18
		c0.4,0,0.7,0.3,0.7,0.7l1.8,23.1c0,0.1,0,0.3-0.1,0.4C137.2,152.9,132.7,155.2,127.9,155.1z M117.2,145.7c0.6,1.2,4,7.9,10.7,7.9
		c4.1,0.1,8-1.9,10.3-5.3l-1.8-22.2h-16.6l-0.7,9.2L117.2,145.7z"></path><path class="st2" d="M117.2,132.1c0.2,1.1,0.6,2.2,1.2,3.1c1.5,2.2,3.5,4,5.9,5.2c3.9,2.1,9.7,4.6,14.4,3.8l-0.8-9.8
		c-3.4,0.4-6.9,0.5-10.4,0.1c-3.1-0.1-6.1-0.7-9-1.7C118.1,132.6,117.6,132.4,117.2,132.1z"></path><path class="st2" d="M136.9,145.1c-4.8,0-10-2.5-12.9-4.1c-2.5-1.3-4.6-3.1-6.2-5.4c-0.7-1-1.1-2.2-1.3-3.4c0-0.3,0.1-0.5,0.3-0.7
		c0.2-0.1,0.5-0.1,0.8,0c0.4,0.2,0.9,0.5,1.3,0.7c2.8,1,5.7,1.6,8.7,1.7c3.4,0.4,6.8,0.4,10.2-0.1c0.2,0,0.4,0,0.6,0.1
		c0.2,0.1,0.3,0.3,0.3,0.5l0.8,9.8c0,0.4-0.2,0.7-0.6,0.8C138.1,145.1,137.5,145.1,136.9,145.1z M118.3,133.5
		c0.2,0.5,0.4,0.9,0.7,1.4c1.4,2.1,3.4,3.8,5.7,4.9c3,1.6,8.5,4.2,13.2,3.8l-0.7-8.3c-3.3,0.4-6.5,0.4-9.8,0
		C124.3,135.2,121.2,134.6,118.3,133.5L118.3,133.5z"></path><path class="st1" d="M127.7,136.8h1.6c7.6,0,13.8-6.2,13.8-13.8v-21.8h-29.1V123C113.9,130.6,120,136.8,127.7,136.8z"></path><path class="st2" d="M143,101.2V123c0,7.6-6.2,13.8-13.8,13.8h-1.6c-7.6,0-13.8-6.2-13.8-13.8v-21.8H143 M143,99.7h-29.1
		c-0.8,0-1.5,0.7-1.5,1.5v0V123c0,8.4,6.8,15.2,15.3,15.3h1.6c8.4,0,15.2-6.8,15.3-15.3v-21.8C144.5,100.4,143.8,99.7,143,99.7
		C143,99.7,143,99.7,143,99.7z"></path><path class="st2" d="M128.7,123.5c-0.7,0-1.3,0-2-0.1c-0.4,0-0.7-0.3-0.9-0.6c-1.1-1.8,1.4-8.6,2.2-10.7c0.1-0.4,0.5-0.6,0.9-0.5
		c0.4,0.1,0.6,0.5,0.5,0.9c0,0,0,0,0,0.1c-1.6,4.3-2.7,8.4-2.3,9.3c1.2,0.1,2.5,0.1,3.7,0c0.4-0.1,0.8,0.2,0.8,0.6c0,0,0,0,0,0
		c0,0.4-0.2,0.8-0.6,0.8C130.1,123.5,129.4,123.5,128.7,123.5z M127,122L127,122z"></path><path class="st1" d="M148,103c0,0-5.7,8.4-9,6.7s-5.2-6.3-11.1-6.4c-5.1-0.1-8.1,7.4-12.3,6.3c-2.6-0.7-4.7-2.6-5.8-5.1
		c4.7-6.9,12.8-10.6,21.1-9.8C145.5,95.8,148,103,148,103z"></path><path class="st2" d="M140,110.7c-0.4,0-0.9-0.1-1.3-0.3c-1.2-0.7-2.3-1.6-3.3-2.6c-1.9-1.8-3.9-3.7-7.5-3.7c-2.2,0-4.1,1.6-5.9,3.3
		c-2,1.8-4,3.7-6.6,3c-2.8-0.8-5.2-2.8-6.3-5.6c-0.1-0.2,0-0.4,0.1-0.6c4.9-7,13.2-10.9,21.7-10.1c14.9,1.1,17.7,8.5,17.8,8.8
		c0.1,0.2,0,0.5-0.1,0.7C148.1,104.2,143.6,110.7,140,110.7z M127.9,102.6h0.1c4.2,0.1,6.5,2.2,8.5,4.2c0.9,0.9,1.9,1.7,3,2.3
		c1.9,1,5.7-3.1,7.8-6.2c-0.7-1.4-4.2-6.6-16.3-7.5c-7.9-0.7-15.5,2.8-20.2,9.2c1,2.1,2.8,3.7,5.1,4.3c1.8,0.4,3.4-1,5.2-2.7
		S125,102.6,127.9,102.6L127.9,102.6z"></path><path class="st1" d="M109.8,104.5c0-4.3,0.5-8.6,1.4-12.8c1.6-5.8,13.3-9.8,19.5-8.7c6.2,1.1,14.6,5.7,15.8,8.5S148,103,148,103
		S124.3,90.6,109.8,104.5z"></path><path class="st2" d="M109.8,105.2c-0.4,0-0.7-0.3-0.7-0.7c0-4.4,0.5-8.7,1.5-13c1.7-6.3,13.9-10.4,20.3-9.3
		c6.4,1.1,15,5.8,16.4,8.9c1.3,2.9,1.5,11.4,1.5,11.8c0,0.3-0.1,0.5-0.4,0.6c-0.2,0.1-0.5,0.1-0.7,0c-0.2-0.1-23.4-12-37.4,1.4
		C110.2,105.2,110,105.2,109.8,105.2z M128.6,83.6c-6,0-15.4,3.5-16.7,8.3c-0.9,3.6-1.3,7.3-1.4,10.9c12.9-10.7,31.9-3.2,36.7-1
		c-0.1-2.5-0.4-8-1.3-10c-1.1-2.4-9.2-7-15.3-8.1C130,83.6,129.3,83.6,128.6,83.6z"></path><path class="st2" d="M129.4,132.4c-2.1-0.1-4.1-0.7-5.8-1.7c-0.4-0.2-0.5-0.6-0.3-1s0.6-0.5,1-0.3l0,0c2.7,1.4,5,1.9,6.9,1.3
		c1.1-0.3,2-1,2.6-2c0.2-0.4,0.6-0.5,1-0.3c0.4,0.2,0.5,0.6,0.3,1c0,0,0,0,0,0c-0.8,1.3-2,2.3-3.4,2.8
		C130.9,132.3,130.2,132.4,129.4,132.4z"></path><ellipse class="st2" transform="matrix(0.9978 -6.592560e-02 6.592560e-02 0.9978 -7.0279 9.1216)" cx="134.7" cy="111" rx="0.8" ry="1.9"></ellipse><ellipse class="st2" transform="matrix(0.9978 -6.592560e-02 6.592560e-02 0.9978 -7.1138 8.3137)" cx="122.4" cy="111.9" rx="0.8" ry="1.9"></ellipse><path class="st1" d="M133.2,211.2h-12.8c-0.4,0-0.7-0.3-0.7-0.7l0,0v-17.6c0-0.4,0.3-0.7,0.7-0.7c0,0,0,0,0,0h12.8
		c0.4,0,0.7,0.3,0.7,0.7l0,0v17.6C133.9,210.9,133.6,211.2,133.2,211.2C133.2,211.2,133.2,211.2,133.2,211.2z M121.2,209.7h11.3
		v-16.2h-11.4L121.2,209.7z"></path><path class="st1" d="M223.1,175.6c-0.2-0.1-19.5,40.9-31.1,42.7s-17.4-7.2-12.2-17.2s24.5-27.8,24.5-27.8l22.2-8.2L223.1,175.6z"></path><path class="st2" d="M189,219.3c-4.3,0-7.9-1.6-10-4.5c-2.6-3.6-2.6-8.9,0-13.9c5.1-10,23.9-27.3,24.6-28c0.1-0.1,0.2-0.1,0.2-0.1
		l22.2-8.2c0.3-0.1,0.6,0,0.8,0.2c0.2,0.2,0.3,0.5,0.2,0.8l-3.3,10.5c0,0.1-0.1,0.2-0.1,0.3c-0.1,0.2-0.6,1.1-1.1,2
		c-13.4,26.1-23.6,39.9-30.6,41C191,219.2,190,219.3,189,219.3z M204.5,174c-1.6,1.4-19.4,18.1-24.2,27.5c-2.4,4.6-2.4,9.2-0.1,12.4
		s6.5,4.5,11.6,3.7c4.4-0.7,13.1-8.2,29.4-40.1c0.6-1.2,0.9-1.8,1.1-2.1l2.8-8.9L204.5,174z M223,175.6L223,175.6z"></path><polygon class="st1" points="211.9,189.1 172.9,189.1 191.3,139.9 230.2,139.9 	"></polygon><path class="st2" d="M211.9,189.8h-39c-0.2,0-0.5-0.1-0.6-0.3c-0.1-0.2-0.2-0.5-0.1-0.7l18.4-49.2c0.1-0.3,0.4-0.5,0.7-0.5h39
		c0.2,0,0.5,0.1,0.6,0.3c0.1,0.2,0.2,0.5,0.1,0.7l-18.4,49.2C212.4,189.6,212.2,189.8,211.9,189.8z M174,188.4h37.4l17.8-47.7h-37.4
		L174,188.4z"></path><path class="st1" d="M220.8,179.9c0.2-0.6,7.9-13.3,7.5-17.6c-0.3-3.1-12.3-8.8-14.9-8.3s5.1,5.6,5.1,5.6s-11.8-5.1-12.5-2.1
		s11.2,6,11.2,6s-12.7-2.3-13,0.3s10.4,4.1,10.4,4.1s-10-0.6-8.3,1.7s12.3,5.4,12.3,5.4"></path><path class="st2" d="M220.8,180.6c-0.1,0-0.2,0-0.3,0c-0.4-0.1-0.6-0.5-0.4-0.9c0.2-0.5,0.5-1,0.8-1.5c1.7-3.1,7-12.5,6.6-15.8
		c0-0.2-0.2-1-2.2-2.4c-3.7-2.8-9.8-5.2-11.7-5.2l0,0c1.5,1.6,3.3,3.1,5.2,4.3c0.3,0.2,0.4,0.7,0.2,1c-0.2,0.3-0.6,0.5-0.9,0.3
		c-3.5-1.5-9.7-3.6-11.3-2.8c-0.1,0-0.2,0.1-0.2,0.2c-0.3,1.4,5.3,3.8,10.7,5.1c0.4,0.1,0.6,0.5,0.5,0.9c-0.1,0.4-0.5,0.6-0.9,0.6
		c-6.5-1.1-11.8-1.1-12.1-0.3c-0.1,0.9,4.6,2.5,9.8,3.3c0.4,0.1,0.7,0.4,0.6,0.8c0,0.4-0.4,0.7-0.8,0.7c-3.5-0.2-6.9,0-7.6,0.5
		c1.3,1.6,8,3.9,11.9,5.1c0.4,0.1,0.6,0.5,0.5,0.9s-0.5,0.6-0.9,0.5l0,0c-1.1-0.3-10.9-3.2-12.7-5.6c-0.4-0.4-0.4-1-0.2-1.5
		c0.3-0.6,1.4-1,2.6-1.2c-2.6-0.8-4.9-2-4.7-3.6c0.1-0.4,0.3-0.8,0.7-1.1c1-0.8,3.4-0.9,5.9-0.7c-2.8-1.2-5.1-2.8-4.7-4.6
		c0.1-0.5,0.5-1,1-1.2c1.5-0.8,4.8,0,7.7,0.9c-1.3-1.2-1.9-2.2-1.8-2.8c0.1-0.5,0.6-0.9,1.1-0.9c2.3-0.4,9.5,2.9,13,5.5
		c1.7,1.3,2.6,2.4,2.7,3.5c0.4,3.3-3.5,10.7-6.8,16.7c-0.4,0.7-0.6,1.1-0.7,1.3C221.3,180.5,221.1,180.6,220.8,180.6z"></path><polygon class="st2" points="204.6,138.4 202.1,145.2 217.6,144.8 220.1,138.4 	"></polygon><path class="st2" d="M202.1,145.9c-0.2,0-0.4-0.1-0.6-0.3c-0.1-0.2-0.2-0.4-0.1-0.7l2.5-6.8c0.1-0.3,0.4-0.5,0.7-0.5h15.5
		c0.2,0,0.5,0.1,0.6,0.3c0.1,0.2,0.2,0.4,0.1,0.7l-2.5,6.3c-0.1,0.3-0.4,0.4-0.6,0.4L202.1,145.9L202.1,145.9z M205.1,139.1l-2,5.4
		l14-0.4l1.9-4.9H205.1z"></path><path class="st2" d="M216.1,139.6c0.2-0.6,0.2-1.3,0-1.9c-0.4-1-1.3-1.8-2.4-1.9c-1.1-0.1-2.1,0.1-3,0.8c-0.9,0.6-1.5,1.5-1.7,2.5
		c-0.4,1.8,0.7,3.6,2.5,4c0.1,0,0.2,0,0.4,0.1C213.8,143.2,215.7,141.4,216.1,139.6z"></path><path class="st2" d="M212.1,143.8h-0.2c-1.1-0.1-2.1-0.6-2.8-1.6c-0.7-1-1-2.2-0.8-3.4c0.3-1.2,1-2.2,2-2.9c1-0.8,2.3-1.1,3.6-0.9
		c1.3,0.2,2.5,1.1,2.9,2.4c0.2,0.8,0.3,1.6,0.1,2.3l0,0C216.3,142,214.3,143.6,212.1,143.8z M213.1,136.4c-0.7,0-1.4,0.3-2,0.7
		c-0.7,0.5-1.2,1.2-1.4,2c-0.2,0.8,0,1.6,0.5,2.2c0.4,0.6,1,0.9,1.7,1c1.7-0.1,3.1-1.3,3.5-2.9l0,0c0.1-0.5,0.1-1,0-1.5
		c-0.3-0.8-1-1.3-1.8-1.5C213.4,136.4,213.2,136.4,213.1,136.4L213.1,136.4z"></path><path class="st1" d="M68.7,232.6c0,0-6.3-10.2-15.5-9.9c-6.3,0.2-15.7,4.9-15.7,4.9l42.8,43.3c0,0,13.8,10.5,16,7.2
		s3.5-6.7,2.2-8.9s-8.6-6-8.6-6l-1-8.8c0,0-5.1,1.8-6.8,0.9S68.7,232.6,68.7,232.6z"></path><path class="st2" d="M94.9,279.5c-4.4,0-13.9-7.2-15-8L37,228.1c-0.2-0.2-0.2-0.4-0.2-0.6c0-0.2,0.2-0.4,0.4-0.5
		c0.4-0.2,9.6-4.7,16-4.9h0.4c9.2,0,15.4,9.9,15.7,10.3l0,0c5.6,10.3,12.2,21.7,13.3,22.5c0.9,0.5,4.1-0.3,6.1-1
		c0.4-0.1,0.8,0,1,0.4c0,0.1,0,0.1,0,0.2l0.9,8.4c1.6,0.9,7.3,4,8.5,6.1c1.6,2.8-0.3,6.8-2.3,9.7c-0.3,0.5-0.9,0.8-1.5,0.9
		C95.2,279.5,95,279.5,94.9,279.5z M38.8,227.8l42,42.6c2.9,2.2,11.4,8.1,14.3,7.6c0.2,0,0.4-0.1,0.5-0.3c2.4-3.6,3.2-6.5,2.2-8.1
		s-6.3-4.7-8.3-5.7c-0.2-0.1-0.4-0.3-0.4-0.6l-0.8-7.8c-1.7,0.5-5,1.4-6.5,0.6c-1.7-0.9-11-17.8-13.9-23c-0.3-0.4-6.4-9.8-14.8-9.6
		C48.3,223.6,41.3,226.6,38.8,227.8z"></path><path class="st2" d="M103.7,371.9H88.9c-0.4,0-0.7-0.2-0.7-0.6c0-0.4,0.2-0.7,0.6-0.7c0.1,0,0.1,0,0.2,0h14.8
		c0.4,0,0.6,0.4,0.6,0.7C104.2,371.7,104,371.9,103.7,371.9z"></path><path class="st2" d="M153.9,371.9h-14.8c-0.4,0-0.6-0.4-0.6-0.7c0-0.3,0.3-0.5,0.6-0.6h14.8c0.4,0,0.7,0.2,0.7,0.6
		c0,0.4-0.2,0.7-0.6,0.7C154,371.9,154,371.9,153.9,371.9z"></path><circle class="st3" cx="128.8" cy="90.9" r="3.8"></circle></g></svg>