<!-- icon666.com - MILLIONS vector ICONS FREE --><svg id="Layer_1" enable-background="new 0 0 512.001 512.001" viewBox="0 0 512.001 512.001" xmlns="http://www.w3.org/2000/svg"><g><g clip-rule="evenodd" fill-rule="evenodd"><path d="m49.057 70h440v-40c0-11-9-20-20-20h-400c-11 0-20 9-20 20z" fill="#b278d3"/><path d="m489.057 70h-440v265.889c0 11 9 20 20 20h69.69l17.788-16.686c-68.282-89.998-1.558-224.441 112.525-223.312 125.185-.342 186.758 154.043 97.978 239.998h102.02c11 0 20-9 20-20v-265.889z" fill="#fff"/><path d="m269.057 115.889c-114.102-1.121-180.8 133.339-112.523 223.313 8.243 11.115 18.095 20.966 29.21 29.209 52.418 40.892 135.433 34.802 181.293-12.523 88.795-85.989 27.183-240.344-97.98-239.999z" fill="#cff5fd"/><path d="m185.744 368.412c-11.115-8.243-20.966-18.094-29.21-29.209l-17.788 16.686-12.343 11.578 31.075 31.075z" fill="#ffc144"/><path d="m157.48 398.542-31.075-31.075-95.711 89.783c-10.495 9.845-10.171 26.832 0 37.003 10.171 10.172 27.162 10.49 37.003 0z" fill="#6d91ac"/><path d="m234.144 189.156-31.82 31.82 34.914 34.913-34.914 34.914 31.82 31.819 34.913-34.913 34.914 34.913 31.819-31.819-34.913-34.914 34.914-34.914-31.82-31.819-34.914 34.914z" fill="#ff5a58"/></g><g><path d="m469.058 0h-400.001c-16.542 0-29.999 13.458-29.999 30v305.889c0 16.542 13.457 30 29.999 30h44.413l-89.618 84.068c-6.877 6.452-10.75 15.306-10.903 24.932-.157 9.859 3.733 19.494 10.675 26.436 6.936 6.94 16.588 10.833 26.433 10.673 9.628-.153 18.483-4.025 24.935-10.902l112.177-119.583c54.514 37.674 136.953 30.196 183.77-15.623h98.121c16.542 0 30-13.458 30-30v-305.89c-.002-16.542-13.46-30-30.002-30zm-408.654 487.411c-2.714 2.892-6.502 4.521-10.667 4.588-4.462.071-8.839-1.684-11.972-4.817-3.135-3.134-4.892-7.499-4.82-11.974.067-4.163 1.697-7.95 4.59-10.664l88.647-83.156 17.378 17.378zm96.847-103.241-16.474-16.474 14.769-13.854c4.801 5.557 10.003 10.758 15.559 15.559zm-18.193-128.28c0-71.683 58.317-130 130-130 172.226 6.535 172.179 253.491-.002 260.001-71.681-.001-129.998-58.319-129.998-130.001zm330 89.999h-80.071c74.172-96.242 2.6-241.133-119.931-239.998-117.931-1.15-190.838 134.616-125.62 231.889l-8.645 8.109h-65.734c-5.514 0-9.999-4.486-9.999-10v-255.889h164.996c13.254-.492 13.244-19.513 0-20h-164.996v-30c0-5.514 4.485-10 9.999-10h400.001c5.514 0 10 4.486 10 10v30h-165.004c-13.254.492-13.244 19.513 0 20h165.004v255.889c0 5.514-4.487 10-10 10z"/><path d="m269.058 60h-.008c-5.522 0-9.996 4.477-9.996 10 .492 13.248 19.515 13.249 20.004 0 0-5.523-4.478-10-10-10z"/><path d="m342.861 213.904-31.819-31.819c-3.725-3.874-10.418-3.873-14.143 0l-27.843 27.843-27.842-27.842c-3.725-3.874-10.418-3.874-14.143 0l-31.819 31.819c-3.905 3.905-3.905 10.237 0 14.143l27.842 27.842-27.842 27.842c-3.905 3.905-3.905 10.237 0 14.143l31.819 31.819c3.725 3.874 10.418 3.874 14.143 0l27.842-27.842 27.843 27.843c3.725 3.873 10.418 3.873 14.143 0l31.819-31.819c3.905-3.905 3.905-10.237 0-14.143l-27.842-27.842 27.842-27.842c3.906-3.907 3.906-10.239 0-14.145zm-49.055 34.914c-3.905 3.905-3.905 10.237 0 14.143l27.842 27.842-17.677 17.678-27.843-27.843c-3.724-3.873-10.419-3.873-14.143 0l-27.842 27.842-17.677-17.678 27.842-27.842c3.905-3.905 3.905-10.237 0-14.143l-27.842-27.842 17.677-17.678 27.842 27.842c3.724 3.874 10.418 3.874 14.143 0l27.843-27.843 17.677 17.678z"/></g></g></svg>