<svg transform="scale(1)" version="1.1" id="Layer_1" xmlns="http://www.w3.org/2000/svg" xmlns:xlink="http://www.w3.org/1999/xlink" x="0px" y="0px" viewBox="0 0 400 300" xml:space="preserve" class="show_show__wrapper__graphic__5Waiy "><title>React</title><style type="text/css">
	.st0{fill:#FFFFFF;}
	.st1{fill:#231F20;}
	.st2{fill:#D1D3D4;}
	.st3{fill:#00397F;}
</style><g id="phone"><path class="st0" d="M202.6,51.5H75.9l-0.3-5.4c-0.6-8.2,5.4-15.3,13.6-16c0.5,0,0.9-0.1,1.4,0h94.8c9,0.1,16.4,7.1,17,16
		L202.6,51.5z"></path><path class="st1" d="M202.6,52H75.9c-0.3,0-0.5-0.2-0.5-0.5L75,46.1c-0.6-8.4,5.7-15.8,14.1-16.4c0.5,0,0.9,0,1.4,0h94.8
		c9.2,0.1,16.8,7.3,17.5,16.4l0.3,5.4c0,0.1,0,0.3-0.1,0.4C202.9,51.9,202.7,52,202.6,52z M76.3,51h125.7l-0.3-4.8
		c-0.6-8.6-7.8-15.4-16.5-15.5H90.5c-7.9-0.1-14.4,6.2-14.6,14.1c0,0.4,0,0.9,0,1.3L76.3,51z"></path><polygon class="st0" points="215.6,261.3 88.8,261.3 75.9,51.7 202.6,51.7 	"></polygon><path class="st1" d="M215.6,261.8H88.8c-0.3,0-0.5-0.2-0.5-0.5l-13-209.6c0-0.1,0-0.3,0.1-0.4c0.1-0.1,0.2-0.2,0.4-0.2h126.8
		c0.3,0,0.5,0.2,0.5,0.5l13,209.6c0,0.1,0,0.3-0.1,0.4C215.9,261.8,215.7,261.8,215.6,261.8z M89.3,260.8h125.7L202.1,52.2H76.4
		L89.3,260.8z"></path><path class="st1" d="M142.8,43.2h-14.9c-0.3,0-0.5-0.2-0.5-0.5s0.2-0.5,0.5-0.5h14.9c0.3,0,0.5,0.2,0.5,0.5S143,43.2,142.8,43.2
		L142.8,43.2z"></path><path class="st1" d="M149.6,43.2h-3.4c-0.3,0-0.5-0.2-0.5-0.5s0.2-0.5,0.5-0.5h3.4c0.3,0,0.5,0.2,0.5,0.5S149.8,43.2,149.6,43.2z"></path><path class="st2" d="M196.7,142.8h-54.2c-0.3,0-0.5-0.2-0.5-0.5l-5.1-70.7c0-0.1,0-0.3,0.1-0.4c0.1-0.1,0.2-0.2,0.4-0.2h53
		c0.3,0,0.5,0.2,0.5,0.5l6.3,70.7c0,0.1,0,0.3-0.1,0.4C197,142.7,196.8,142.7,196.7,142.8z M143,141.8h53.2L189.9,72h-52L143,141.8z
		"></path><path class="st2" d="M159.8,217.5c-0.3,0-0.5-0.2-0.5-0.4c-1.1-9.7-2-21-2-21.1c0-0.3,0.2-0.5,0.4-0.5c1.7-0.2,3.2-1.1,4.2-2.5
		c3.2-4.5,1.6-13.4,1.6-13.4c0-0.2,0-0.3,0.1-0.4c0.1-0.1,0.3-0.2,0.4-0.2l5.1,0.4c0.3,0,0.5,0.3,0.5,0.5c0,0.1-0.5,8.9,2.2,11.4
		c0.5,0.5,1.2,0.7,1.8,0.6c0.8-0.1,1.4-0.5,1.9-1.2c2.1-3.1,0.5-10.6,0.5-10.7c0-0.1,0-0.3,0.1-0.4c0.1-0.1,0.2-0.2,0.4-0.2h4.3
		c0.3,0,0.5,0.2,0.5,0.5c0.2,2.8,0.6,5.6,1.3,8.3c0.2,1.3,1,2.5,2.1,3.2c1.4,0.7,3,1,4.6,0.6c0.1,0,0.3,0,0.4,0.1
		c0.1,0.1,0.2,0.2,0.2,0.3c1.8,8.8,3.7,24.4,3.7,24.6c0,0.1,0,0.3-0.1,0.4c-0.1,0.1-0.2,0.2-0.4,0.2L159.8,217.5L159.8,217.5z
		 M158.4,196.3c0.2,2.2,0.9,11.7,1.9,20.2l32.3-0.1c-0.4-2.8-2-15.6-3.6-23.5c-1.6,0.2-3.3-0.1-4.8-0.9c-1.3-0.9-2.3-2.3-2.6-3.9
		c-0.7-2.6-1.1-5.3-1.3-8h-3.2c0.4,2,1.3,8-0.7,10.9c-0.6,0.9-1.5,1.4-2.6,1.6c-1,0.2-1.9-0.2-2.6-0.8c-2.7-2.5-2.6-9.7-2.5-11.6
		l-4-0.3c0.3,2.2,1.1,9.4-1.9,13.6C161.8,194.9,160.2,195.9,158.4,196.3L158.4,196.3z"></path><path class="st2" d="M105.5,220.4c-0.3,0-0.5-0.2-0.5-0.5l-2.3-36.4c0-0.1,0-0.3,0.1-0.4c0.1-0.1,0.2-0.2,0.4-0.2l34.2-0.2l0,0
		c0.3,0,0.5,0.2,0.5,0.4l3.9,36.1c0,0.1,0,0.3-0.1,0.4c-0.1,0.1-0.2,0.2-0.4,0.2l-13,0.2c-0.2,0-0.5-0.2-0.5-0.4l-3.9-16.5
		l-1.4,16.1c0,0.3-0.2,0.5-0.5,0.5L105.5,220.4L105.5,220.4z M103.7,184l2.3,35.3l15.5-0.6l1.7-18.8c0-0.2,0.2-0.4,0.5-0.4
		c0.2,0,0.5,0.1,0.5,0.4l4.6,19.1l12.1-0.1l-3.8-35.1L103.7,184z"></path><path class="st2" d="M103.8,188c-0.3,0-0.5-0.2-0.5-0.5c0-0.3,0.2-0.5,0.5-0.5c0,0,0,0,0,0l33.5-0.5c0.3,0,0.5,0.2,0.5,0.4
		c0,0,0,0,0,0.1c0,0.3-0.2,0.5-0.5,0.5c0,0,0,0,0,0L103.8,188L103.8,188z"></path><path class="st3" d="M124.1,144.4h-22.8c-2.7,0-5-2.2-5.1-4.9l0,0c-0.1-2.6,1.8-4.8,4.4-4.9c0.1,0,0.2,0,0.3,0h22.8
		c2.7,0,5,2.2,5.1,4.9l0,0c0.1,2.6-1.9,4.8-4.4,4.9C124.2,144.4,124.2,144.4,124.1,144.4z"></path><path class="st2" d="M134.1,239.8h-16.7c-2.7,0-5-2.2-5.1-4.9l0,0c-0.1-2.6,1.8-4.8,4.4-4.9c0.1,0,0.2,0,0.3,0h16.7
		c2.7,0,5,2.2,5.1,4.9l0,0c0.1,2.6-1.9,4.8-4.4,4.9C134.3,239.7,134.2,239.8,134.1,239.8z"></path><path class="st2" d="M189.2,239.8h-16.7c-2.7,0-5-2.2-5.1-4.9l0,0c-0.1-2.6,1.9-4.8,4.4-4.9c0.1,0,0.2,0,0.3,0h16.7
		c2.7,0,5,2.2,5.1,4.9l0,0c0.1,2.6-1.9,4.8-4.4,4.9C189.3,239.7,189.2,239.8,189.2,239.8z"></path><path class="st2" d="M121.8,73L121.8,73l-30.1-0.6c-0.3,0-0.5-0.2-0.5-0.5c0,0,0,0,0,0c0-0.3,0.2-0.5,0.5-0.5c0,0,0,0,0,0l30.1,0.6
		c0.3,0,0.5,0.2,0.5,0.5S122.1,73,121.8,73L121.8,73z"></path><path class="st2" d="M122.4,83L122.4,83l-30.1-0.6c-0.3,0-0.5-0.2-0.5-0.5c0,0,0,0,0,0c0-0.3,0.2-0.5,0.5-0.5l30.1,0.6
		c0.3,0,0.5,0.2,0.5,0.5S122.7,83,122.4,83L122.4,83z"></path><path class="st2" d="M123,93L123,93l-30.1-0.6c-0.3,0-0.5-0.2-0.5-0.5c0,0,0,0,0,0c0-0.3,0.2-0.5,0.5-0.5L123,92
		c0.3,0,0.5,0.2,0.5,0.5c0,0,0,0,0,0C123.5,92.8,123.3,93,123,93z"></path><path class="st2" d="M123.7,103.1L123.7,103.1l-30.1-0.6c-0.3,0-0.5-0.2-0.5-0.5c0,0,0,0,0,0c0-0.3,0.2-0.5,0.4-0.5c0,0,0,0,0.1,0
		l30.1,0.6c0.3,0,0.5,0.2,0.5,0.5S123.9,103.1,123.7,103.1L123.7,103.1z"></path><path class="st2" d="M124.3,113.1L124.3,113.1l-30.1-0.6c-0.3,0-0.5-0.2-0.5-0.5c0,0,0,0,0,0c0-0.3,0.2-0.5,0.5-0.5l30.1,0.6
		c0.3,0,0.5,0.2,0.5,0.5c0,0,0,0,0,0C124.8,112.9,124.5,113.1,124.3,113.1z"></path><path class="st2" d="M115.6,122.9L115.6,122.9l-20.8-0.4c-0.3,0-0.5-0.2-0.5-0.5s0.2-0.5,0.5-0.5l20.8,0.4c0.3,0,0.5,0.2,0.5,0.5
		C116.1,122.7,115.9,122.9,115.6,122.9z"></path><path class="st2" d="M139.9,247.1l-1,1l-0.5-0.6l1.6-1.4h0.7l0.6,6.1h-0.8L139.9,247.1z"></path><path class="st2" d="M147.7,251.4l2.2-2.4c0.1-0.1,0.1-0.2,0.2-0.3c0.1-0.1,0.1-0.2,0.2-0.3c0.1-0.1,0.1-0.2,0.1-0.3
		c0-0.1,0-0.2,0-0.4c0-0.1-0.1-0.3-0.1-0.4c-0.1-0.1-0.1-0.2-0.2-0.3c-0.1-0.1-0.2-0.2-0.4-0.2c-0.1-0.1-0.3-0.1-0.4-0.1
		c-0.3,0-0.5,0.1-0.7,0.2c-0.2,0.2-0.3,0.4-0.3,0.7l-0.9-0.1c0-0.2,0.1-0.5,0.2-0.7c0.1-0.2,0.2-0.4,0.4-0.5
		c0.2-0.1,0.4-0.2,0.6-0.3c0.2-0.1,0.5-0.1,0.7-0.1c0.3,0,0.5,0,0.8,0.1c0.2,0.1,0.4,0.2,0.6,0.3c0.2,0.1,0.3,0.3,0.5,0.5
		c0.1,0.2,0.2,0.5,0.2,0.7c0,0.2,0,0.4,0,0.6c0,0.2-0.1,0.3-0.2,0.5c-0.1,0.2-0.2,0.3-0.3,0.4l-0.4,0.4l-1.8,1.9l3.1,0.1l0.1,0.7
		l-4-0.1L147.7,251.4z"></path><path class="st2" d="M157.9,251c0.1,0.2,0.3,0.5,0.4,0.7c0.2,0.2,0.5,0.2,0.7,0.2c0.2,0,0.3,0,0.4-0.1c0.1,0,0.2-0.1,0.4-0.2
		c0.1-0.1,0.2-0.2,0.2-0.3c0.1-0.1,0.1-0.3,0.1-0.4c0-0.2-0.1-0.4-0.2-0.6c-0.1-0.2-0.3-0.3-0.4-0.4c-0.2-0.1-0.4-0.1-0.6-0.1
		c-0.2,0-0.4,0-0.6,0l-0.1-0.7c0.3,0,0.5,0,0.8-0.1c0.2,0,0.3-0.1,0.4-0.2c0.1-0.1,0.2-0.2,0.2-0.3c0-0.1,0-0.3,0-0.4
		c0-0.3-0.1-0.6-0.4-0.7c-0.2-0.2-0.5-0.3-0.8-0.3c-0.2,0-0.4,0.1-0.6,0.2c-0.2,0.1-0.3,0.3-0.4,0.5l-0.9-0.3
		c0.1-0.4,0.3-0.7,0.6-0.9c0.3-0.2,0.7-0.3,1.1-0.3c0.2,0,0.5,0,0.7,0.1c0.2,0.1,0.4,0.2,0.6,0.3c0.2,0.1,0.3,0.3,0.5,0.5
		c0.1,0.2,0.2,0.5,0.2,0.7c0.1,0.6-0.3,1.2-0.9,1.4l0,0c0.2,0,0.4,0.1,0.5,0.2c0.2,0.1,0.3,0.2,0.4,0.4c0.1,0.1,0.2,0.3,0.3,0.5
		c0.1,0.2,0.1,0.4,0.1,0.5c0,0.3,0,0.5-0.1,0.8c-0.1,0.2-0.2,0.4-0.4,0.6c-0.2,0.1-0.4,0.3-0.6,0.3c-0.2,0.1-0.5,0.1-0.8,0.1
		c-0.4,0-0.9-0.1-1.2-0.3c-0.4-0.2-0.7-0.6-0.8-1L157.9,251z"></path><path class="st2" d="M168.9,251.3h-2.6l-0.1-0.9l2.1-3.9h1l0.4,4h0.9l0.1,0.7h-0.9l0.1,1.3H169L168.9,251.3z M168.6,247.5
		L168.6,247.5l-1.6,3h1.9L168.6,247.5z"></path><path class="st2" d="M143.8,254.7l-4.9-0.1c-0.3,0-0.6-0.3-0.6-0.6c0-0.3,0.1-0.5,0.4-0.6c0,0,0.1,0,0.1,0l4.9,0.1
		c0.3,0,0.6,0.3,0.6,0.6C144.4,254.4,144.2,254.6,143.8,254.7C143.9,254.7,143.8,254.7,143.8,254.7z"></path></g><g id="shirt"><path class="st0" d="M166.6,96.1c0,0-5.5-0.6-12.4,3.9s-16.7,10.4-16.7,10.4s0.7,0.5,3.8,9.3l12.7-4.4c0,0,1.4,13.5,2,19.5
		l-22.1,34c0,0,6.9,5.8,12.7,1.6c0,0,1.4,6,6.1,5.2s6.3-3.9,6.3-3.9s1.6,5,5.5,4.4s6-4.6,6-4.6s2,5.2,6.9,4.4
		c2.9-0.5,5.3-2.7,6.1-5.5c0,0,5.4,10.4,16.2-1.1l-14.2-34.5l2.8-20l9,7.1c0,0,6.1,0.5,4.7-7.4c0,0-11.6-14.8-16.9-17.3
		S166.6,96.1,166.6,96.1z"></path><path class="st1" d="M163.9,176.6c-2.5,0-4.2-2.2-5-3.9c-1.5,1.8-3.7,3-6.1,3.4c-3.7,0.6-5.8-2.6-6.5-4.9c-5.9,3.7-12.7-1.9-12.8-2
		c-0.2-0.2-0.2-0.4-0.1-0.7l22-33.8c-0.5-5.3-1.6-16-1.9-18.7l-12.1,4.2c-0.3,0.1-0.5-0.1-0.6-0.3c-2.9-8.1-3.6-9.1-3.7-9.1
		c-0.1-0.1-0.2-0.2-0.2-0.4c0-0.2,0.1-0.3,0.3-0.4c0.1,0,9.8-5.9,16.7-10.4s12.1-4.1,12.7-4c1-0.1,13.5-1.3,18.8,1.2
		s16.6,16.8,17.1,17.5c0,0.1,0.1,0.1,0.1,0.2c0.5,2.8,0.1,5-1.1,6.4c-1.1,1.1-2.6,1.7-4.1,1.6c-0.1,0-0.2-0.1-0.3-0.1l-8.3-6.5
		l-2.7,19l14.2,34.3c0.1,0.2,0,0.4-0.1,0.5c-3.9,4.1-7.6,6-10.9,5.5c-2.3-0.4-4.3-1.7-5.6-3.6c-1.1,2.6-3.4,4.4-6.2,4.9
		c-3.9,0.6-6.2-2.4-7.1-3.9c-1.3,2.1-3.4,3.5-5.9,4C164.4,176.5,164.1,176.5,163.9,176.6z M159,171.1L159,171.1
		c0.2,0,0.4,0.2,0.4,0.4c0.1,0.2,1.5,4.6,4.9,4.1c3.6-0.6,5.6-4.3,5.6-4.3c0.1-0.2,0.3-0.3,0.5-0.3c0.2,0,0.4,0.1,0.4,0.3
		c0.1,0.2,2,4.8,6.4,4.1c2.7-0.5,4.9-2.5,5.7-5.1c0.1-0.2,0.2-0.3,0.4-0.4c0.2,0,0.4,0.1,0.5,0.3c0,0,1.8,3.5,5.4,4
		c2.9,0.4,6.2-1.3,9.8-5l-14-34.2c0-0.1,0-0.2,0-0.3l2.8-20c0-0.2,0.1-0.3,0.3-0.4c0.2-0.1,0.4,0,0.5,0.1l8.8,7l0,0
		c1.2,0,2.3-0.4,3.2-1.3c1-1.1,1.3-3,0.9-5.4c-1-1.3-11.7-14.7-16.7-17.1c-5.2-2.4-18.2-1.1-18.4-1h-0.1c0,0-5.4-0.5-12.1,3.9
		c-6,4-14.3,8.9-16.3,10.1c1.3,2.8,2.4,5.6,3.4,8.5l12.3-4.2c0.1-0.1,0.3-0.1,0.4,0c0.1,0.1,0.2,0.2,0.2,0.4c0,0.1,1.5,13.6,2,19.5
		c0,0.1,0,0.2-0.1,0.3l-21.9,33.6c1.4,1.1,7.1,4.7,11.8,1.3c0.2-0.2,0.5-0.1,0.7,0.1c0,0.1,0.1,0.1,0.1,0.2c0.1,0.2,1.4,5.5,5.6,4.8
		c4.4-0.7,5.9-3.6,5.9-3.7C158.7,171.2,158.8,171.1,159,171.1z"></path><path class="st1" d="M163.4,98.9c-0.3,0-0.5-0.2-0.5-0.5c0-0.1,0-0.2,0.1-0.3c3.4-3.6,10.3-5.9,11.8-6.3c0.4-1.2,0.3-2.6-0.3-3.7
		c-0.3-0.5-0.6-0.9-1-1.3c-1-1.2-2.2-2.8-1.9-4.4c0.4-1.3,1.3-2.4,2.5-2.9c0.7-0.5,1.7-0.6,2.5-0.3c1.6,0.7,2.2,3.1,2.2,3.2
		c0.1,0.3-0.1,0.6-0.4,0.6c-0.3,0.1-0.6-0.1-0.6-0.4c-0.1-0.6-0.7-2.1-1.6-2.5c-0.5-0.2-1.1-0.1-1.6,0.2c-1,0.4-1.7,1.2-2,2.2
		c-0.2,1.2,0.8,2.5,1.7,3.6c0.4,0.5,0.7,0.9,1.1,1.4c0.7,1.5,0.8,3.2,0.3,4.8c0,0.2-0.2,0.3-0.3,0.3c-0.1,0-8.1,2.4-11.6,6.2
		C163.6,98.9,163.5,98.9,163.4,98.9z"></path><path class="st1" d="M184.5,100.2c-0.2,0-0.3-0.1-0.4-0.2c-2.2-3.3-5.4-5.9-9.1-7.4c-0.3-0.1-0.4-0.4-0.3-0.6c0,0,0,0,0,0
		c0.1-0.3,0.4-0.4,0.6-0.3c3.9,1.6,7.3,4.3,9.6,7.8c0.1,0.2,0.1,0.5-0.2,0.7c0,0,0,0,0,0C184.7,100.2,184.6,100.2,184.5,100.2z"></path><path class="st1" d="M173.9,103.8c-0.9,0-1.8-0.1-2.7-0.2c-9.1-1.2-9.7-6.7-9.8-6.9c0-0.3,0.2-0.5,0.4-0.5c0.3,0,0.5,0.2,0.6,0.4
		c0,0.2,0.6,4.9,8.9,6c5.2,0.6,10.5-0.8,14.6-4c0.2-0.2,0.5-0.2,0.7,0.1c0.2,0.2,0.2,0.5-0.1,0.7C183,102.2,178.5,103.8,173.9,103.8
		z"></path></g><g id="Character"><path class="st0" d="M235.1,91.3c0,0-4.7,10.9-3.3,12s5,0.3,5,0.3"></path><path class="st1" d="M234.2,104.3c-1,0.1-1.9-0.2-2.7-0.7c-1.5-1.2,1.4-8.4,3.2-12.6c0.1-0.3,0.4-0.4,0.6-0.3
		c0.3,0.1,0.4,0.4,0.3,0.6c0,0,0,0.1,0,0.1c-2.4,5.5-4,10.7-3.5,11.4c1,0.8,3.6,0.4,4.6,0.2c0.3-0.1,0.5,0.1,0.6,0.4
		c0.1,0.3-0.1,0.5-0.4,0.6c0,0,0,0,0,0C236,104.2,235.1,104.3,234.2,104.3z"></path><path class="st0" d="M250.9,121.6l-2.8-5.8c0,0-4.5,3.2-9.3-4s-5.8-35.3-5.8-35.3s12.5,17.6,16,14.7c-0.7-5.1,2.2-8.3,5.8-2
		c2.8,4.9-2.7,7.9-2.7,7.9l4.6,17.4"></path><path class="st1" d="M250.9,122.1c-0.2,0-0.4-0.1-0.4-0.3l-2.5-5.3c-1.1,0.5-2.2,0.6-3.4,0.4c-2.2-0.4-4.2-2-6.1-4.9
		c-4.8-7.3-5.8-34.4-5.8-35.6c0-0.2,0.1-0.4,0.3-0.5c0.2-0.1,0.4,0,0.6,0.2c2.8,4,10.9,14.3,14.5,14.8c0.2,0,0.4,0,0.6,0
		c-0.3-2.9,0.4-5.1,1.9-5.6c0.9-0.3,2.6-0.2,4.8,3.6c0.8,1.3,1.1,2.9,0.7,4.4c-0.6,1.7-1.7,3.1-3.2,4l4.6,17.1
		c0.1,0.3-0.1,0.5-0.4,0.6c0,0,0,0,0,0c-0.3,0.1-0.5-0.1-0.6-0.4l-4.7-17.4c-0.1-0.2,0-0.5,0.2-0.6c1.4-0.8,2.5-2.1,3-3.7
		c0.3-1.2,0.1-2.6-0.6-3.6c-1.3-2.3-2.7-3.5-3.6-3.2s-1.6,2.1-1.2,4.8c0,0.2-0.1,0.3-0.2,0.5c-0.5,0.3-1,0.5-1.6,0.4
		c-3.9-0.6-11.5-10.3-14.2-13.9c0.3,6.1,1.6,27.3,5.6,33.4c1.7,2.6,3.5,4.1,5.4,4.4c1.1,0.2,2.2,0,3.2-0.6c0.1-0.1,0.3-0.1,0.4-0.1
		c0.1,0,0.3,0.1,0.3,0.3l2.8,5.8c0.1,0.2,0,0.5-0.2,0.7c0,0,0,0,0,0C251,122.1,250.9,122.1,250.9,122.1z"></path><ellipse class="st1" transform="matrix(0.9939 -0.1099 0.1099 0.9939 -8.5766 26.7274)" cx="238.2" cy="91.2" rx="0.9" ry="2.7"></ellipse><path class="st1" d="M305,162.3c-0.3,0-0.5-0.2-0.5-0.4c0-0.3,0.2-0.5,0.4-0.6c11.3-1.4,21-10.1,22.5-20.2c0.6-4.3,0-9-1.8-14.4
		c-1.5-4.7-4.1-9.1-7.4-12.7c-5.4-5.4-12.6-8-19.7-10.5c-3.6-1.2-7.2-2.6-10.6-4.2c-8.2-4-11.3-10.3-14.6-17c-1.5-3.1-3.1-6.1-5-9
		c-6.8-10.5-20.7-13.5-31.2-6.7c-0.1,0.1-0.2,0.1-0.3,0.2l-1,0.6c-1,0.7-2.1,1.4-3.3,1.9c-0.5,0.2-1,0.3-1.5,0.5
		c-0.4,0.1-0.9,0.2-1.3,0.4c-4.5,1.7-6.9,6.7-5.2,11.2c0.9,2.6,3,4.6,5.7,5.4c0.3,0.1,0.4,0.4,0.4,0.6c-0.1,0.3-0.4,0.4-0.6,0.4
		c-5.1-1.6-8-7-6.5-12.1c0.9-2.9,3.1-5.2,5.9-6.3c0.4-0.2,0.9-0.3,1.4-0.4c0.5-0.1,0.9-0.3,1.4-0.4c1.1-0.5,2.1-1.1,3.1-1.8l1-0.6
		c10.8-7.2,25.5-4.3,32.7,6.5c0.1,0.1,0.1,0.2,0.2,0.3c1.9,2.9,3.6,6,5.1,9.2c3.4,6.8,6.3,12.6,14.2,16.5c3.4,1.6,6.9,3,10.5,4.2
		c7.1,2.5,14.5,5.2,20,10.8c3.5,3.7,6.1,8.2,7.7,13.1c1.9,5.6,2.6,10.4,1.9,14.8C326.9,151.8,316.8,160.8,305,162.3L305,162.3z"></path><path class="st0" d="M247.7,150c0,0-10.7,1.3-32.8-14.9s-29.3-44.8-30.7-46.3s-2-1.6-3.9-1.9c-2.4-0.4-4.5-1.8-5.9-3.9
		c-0.2-0.2-0.3-0.5-0.2-0.8c0.1-0.4,0.5-0.7,1-0.7c0.4,0.1,0.9,0.2,1.3,0.5c0.8,0.4,1.7,0.6,2.7,0.7c0.3,0,0.6,0,0.9-0.2
		c0.5-0.3,0.7-0.9,0.7-1.5c0-1.9-1.2-5.3-3.7-4.2c-0.9,0.4-1.4,1.3-1.3,2.3c0.1,0.2,0.1,0.5,0,0.7c-0.2,0.3-0.5,0.4-0.8,0.3
		c-1.7-0.1-3-1.6-2.8-3.3c0.1-1.7,1.6-3,3.3-2.8c0.1,0,0.2,0,0.4,0.1l-3.3-0.7c-0.7-0.1-1.4-0.3-2.1-0.7c-0.6-0.4-1-1.1-0.9-1.9
		c0.1-0.4,0.3-0.7,0.5-1c1.3-1.4,3.4-1.7,5.3-1.9c3.1-0.3,6.3-0.6,9.3,0.3c6,1.8,9,6.6,12,11.7c9.4,16.5,23.3,30.1,40,39.1
		c7.5,4,16,7.4,24.5,6.8"></path><path class="st1" d="M247,150.5c-2.8,0-13.4-1.1-32.4-15.1c-18.1-13.4-26.4-35.1-29.5-43.2c-0.4-1.1-0.8-2.1-1.3-3.1
		c-1.2-1.3-1.7-1.4-3.5-1.7h-0.1c-2.6-0.4-4.8-1.9-6.2-4.1c-0.2-0.3-0.3-0.7-0.3-1.1c0.1-0.7,0.8-1.2,1.5-1.2
		c0.4,0.1,0.9,0.2,1.2,0.4l0.2,0.1c0.8,0.4,1.6,0.6,2.5,0.6c0.2,0,0.4,0,0.6-0.1c0.4-0.2,0.4-0.8,0.4-1c0-1.3-0.6-3.1-1.5-3.7
		c-0.4-0.3-1-0.3-1.5,0c-0.7,0.3-1.1,1-1,1.8v0.1c0.1,0.3,0,0.6-0.1,0.9c-0.3,0.5-0.8,0.7-1.3,0.6c-2-0.1-3.4-1.8-3.3-3.8
		c0.1-1.1,0.6-2.1,1.5-2.7l0.2-0.1l-1-0.2c-0.8-0.1-1.6-0.4-2.3-0.8c-0.8-0.5-1.2-1.4-1.1-2.4c0.1-0.4,0.3-0.9,0.7-1.2
		c1.4-1.5,3.6-1.9,5.6-2.1c3.4-0.4,6.5-0.6,9.5,0.3c6,1.8,9,6.3,12.3,11.9c9.4,16.5,23.2,29.9,39.9,38.9c6.6,3.5,15.4,7.4,24.2,6.7
		c0.3,0,0.5,0.2,0.5,0.4c0,0,0,0,0,0c0,0.3-0.2,0.5-0.5,0.5c-9.1,0.7-18-3.3-24.8-6.8c-16.8-9.1-30.8-22.7-40.3-39.3
		c-3.2-5.5-6-9.8-11.7-11.5c-2.8-0.8-5.8-0.6-9.1-0.3c-1.9,0.2-3.8,0.5-5,1.8c-0.2,0.2-0.3,0.4-0.4,0.7c0,0.5,0.2,1.1,0.7,1.4
		c0.6,0.3,1.2,0.5,1.9,0.6l3.3,0.7c0.3,0.1,0.4,0.3,0.4,0.6c-0.1,0.3-0.3,0.4-0.6,0.4c0,0,0,0,0,0c-1.4-0.3-2.7,0.6-3,2
		c-0.2,0.8,0,1.5,0.5,2.1c0.4,0.6,1.1,0.9,1.8,1c0.1,0,0.2,0,0.4,0c0-0.1,0-0.2,0-0.3v-0.1c-0.1-1.2,0.5-2.3,1.6-2.8
		c0.8-0.4,1.7-0.4,2.4,0.1c1.4,0.9,2,3.3,2,4.5c0.1,0.8-0.3,1.5-0.9,1.9c-0.4,0.2-0.8,0.2-1.2,0.2c-1,0-2-0.3-2.9-0.7l-0.2-0.1
		c-0.3-0.2-0.6-0.3-0.9-0.3c-0.2,0-0.5,0.1-0.5,0.2s0.1,0.3,0.2,0.4c1.2,1.9,3.2,3.3,5.5,3.7h0.1c1.9,0.3,2.7,0.4,4.1,2
		c0.6,1.1,1.1,2.2,1.5,3.4c3.1,8.1,11.3,29.6,29.1,42.8c21.5,15.9,32.3,14.8,32.4,14.8c0.3,0,0.5,0.1,0.5,0.4c0,0,0,0,0,0
		c0,0.3-0.2,0.5-0.4,0.6C247.5,150.5,247.2,150.5,247,150.5z"></path><path class="st1" d="M200.8,186.1c-1.2-1.6-18.9-38.5-18.9-38.5l19.6,0.4l17.3,34.6L200.8,186.1z"></path><path class="st1" d="M200.8,186.6c-0.2,0-0.3-0.1-0.4-0.2c-1.2-1.6-18.2-37.1-18.9-38.6c-0.1-0.1-0.1-0.3,0-0.5
		c0.1-0.1,0.3-0.2,0.4-0.2l19.6,0.4c0.2,0,0.4,0.1,0.4,0.3l17.3,34.6c0.1,0.1,0.1,0.3,0,0.4c-0.1,0.1-0.2,0.2-0.4,0.3L200.8,186.6
		L200.8,186.6z M182.8,148.1c4.9,10.3,16.6,34.5,18.3,37.4l17.1-3.4l-16.9-33.7L182.8,148.1z"></path><polygon class="st3" points="201.2,181.3 185.5,149.8 200.7,150.5 214.6,179.8 	"></polygon><path class="st1" d="M309.6,197.9c0,0,14.1,17.3,13.8,30.6s-3.5,16.1-3.5,16.1l3.4,17.6l-73.3,0.2l4.2-46.5L309.6,197.9z"></path><path class="st1" d="M249.9,263c-0.1,0-0.3-0.1-0.4-0.2c-0.1-0.1-0.1-0.2-0.1-0.4l4.2-46.5c0-0.2,0.2-0.4,0.3-0.4l55.5-18.1
		c0.2-0.1,0.4,0,0.5,0.2c0.6,0.7,14.3,17.6,13.9,31c-0.4,11.6-2.8,15.4-3.5,16.2l3.4,17.4c0,0.1,0,0.3-0.1,0.4
		c-0.1,0.1-0.2,0.2-0.4,0.2L249.9,263L249.9,263z M254.5,216.4l-4.1,45.6l72.2-0.2l-3.3-17.1c0-0.2,0-0.4,0.2-0.5
		c0,0,3-2.9,3.4-15.8c0.4-12.1-11.7-27.8-13.4-30L254.5,216.4z"></path><path class="st3" d="M249.8,220.3c0,0-1.8-1.9-3.3-28.4s-15.4-26.3-10.1-53.2c4.8-24.2,21.7-25.5,32.7-24.2
		c23.5,2.8,17.8,31.9,45.3,85C314.3,199.5,297,233.9,249.8,220.3z"></path><path class="st0" d="M246.2,148.8c0.8,0,5.9,22.1,5.2,25.9c-0.8,4.1-12.6,3.2-15.3,3.2c-3.9,0-15.2,1.1-18.5-0.9
		c-2.8-1.7-6-3.7-8.2-6.1c-1.8-1.9-3.2-4.2-5.1-6.2c-0.8-0.9-1.6-1.6-2.6-2.2c-0.9-0.4-2-0.8-3-0.9c-0.5-0.2-1.1-0.1-1.6,0.1
		c-0.5,0.3-0.7,0.9-0.6,1.5c0.1,0.6,0.3,1.1,0.6,1.6c0.6,1.2,4.1,6,3.4,7.2s-6.5-0.1-7.9-0.3c-3.7-0.4-4.6,2.9-3.9,5.9
		c1.5,6.6,9.8,9.5,15.3,11.9c6.8,3,13.9,5.3,21.1,6.9c10.9,2.3,21.9,3.6,33,3.8c7.3,0.3,19,0.4,23.1-7.1c8.1-14.5-5.8-50.6-5.8-50.6
		"></path><path class="st1" d="M262.2,200.9c-1.6,0-3-0.1-4.1-0.1c-11.1-0.3-22.3-1.5-33.2-3.9c-7.3-1.6-14.4-3.9-21.2-6.9l-1.7-0.8
		c-5.6-2.4-12.5-5.4-13.8-11.5c-0.6-1.8-0.2-3.8,0.9-5.4c0.9-1,2.3-1.4,3.6-1.2c0.3,0,0.8,0.1,1.4,0.2c1.4,0.2,5.5,1,6,0.3
		s-1.9-4.3-2.6-5.4c-0.3-0.5-0.6-1-0.8-1.2c-0.3-0.5-0.5-1.1-0.6-1.8c-0.1-0.8,0.2-1.5,0.8-1.9c0.6-0.3,1.3-0.4,2-0.1
		c2.3,0.2,4.4,1.4,5.9,3.2c1,1,1.9,2.1,2.8,3.3c0.7,1,1.5,1.9,2.4,2.9c2.3,2.2,4.9,4.1,7.6,5.7l0.5,0.3c2.4,1.5,9.6,1.2,14.5,0.9
		c1.5-0.1,2.8-0.1,3.7-0.1h1.3c3.5,0.1,13,0.4,13.6-2.8c0.6-3.5-4.1-23.8-5-25.4c-0.1-0.1-0.2-0.3-0.2-0.4c0-0.3,0.2-0.5,0.5-0.5
		c0.2,0,0.3,0.1,0.5,0.2c1.1,1.3,5.9,22.4,5.2,26.2c-0.8,4.1-10.1,3.8-14.6,3.6h-1.3c-0.9,0-2.2,0.1-3.7,0.1
		c-5.2,0.2-12.4,0.6-15-1.1l-0.5-0.3c-2.8-1.6-5.5-3.6-7.8-5.9c-0.9-0.9-1.7-2-2.4-2.9c-0.8-1.1-1.7-2.2-2.7-3.2
		c-0.7-0.8-1.6-1.5-2.5-2.1c-0.9-0.4-1.9-0.7-2.9-0.9c-0.4-0.1-0.8-0.1-1.2,0c-0.3,0.2-0.4,0.6-0.4,1c0.1,0.5,0.3,1,0.5,1.4
		c0.1,0.2,0.4,0.7,0.7,1.2c1.8,2.9,3.3,5.4,2.6,6.5s-3.6,0.8-7,0.2c-0.6-0.1-1.1-0.2-1.4-0.2c-1-0.2-2,0.1-2.8,0.9
		c-0.9,1.3-1.1,3-0.7,4.5c1.3,5.6,7.9,8.5,13.3,10.8c0.6,0.2,1.2,0.5,1.7,0.8c6.8,3,13.8,5.3,21,6.8c10.9,2.3,21.9,3.6,33,3.8
		c6,0.2,18.5,0.7,22.7-6.8c7.9-14.2-5.7-49.8-5.8-50.1c-0.1-0.3,0-0.5,0.3-0.6c0.3-0.1,0.5,0,0.6,0.3c0,0,0,0,0,0
		c0.6,1.5,13.8,36.4,5.7,51C278,199.9,268.8,200.9,262.2,200.9z"></path><path class="st1" d="M274.1,137.9c-0.2,0-0.4-0.1-0.5-0.3l-6.5-14.2c-0.1-0.2,0-0.5,0.2-0.7c0,0,0,0,0,0c0.3-0.1,0.5,0,0.7,0.2
		l6.5,14.1c0.1,0.2,0,0.5-0.2,0.7c0,0,0,0,0,0C274.3,137.9,274.2,137.9,274.1,137.9z"></path><path class="st1" d="M221.1,208.4L221.1,208.4c-0.3-0.1-0.5-0.3-0.5-0.6c0.2-1.2,6.3-29.6,18.3-31c0.3,0,0.5,0.2,0.6,0.4
		c0,0.3-0.2,0.5-0.4,0.6c-11.3,1.3-17.4,30-17.4,30.2C221.5,208.3,221.3,208.4,221.1,208.4z"></path><path class="st1" d="M245,210.8L245,210.8c-0.3,0-0.5-0.2-0.5-0.5c0,0,0,0,0,0c0-0.1,0.3-7.2-0.8-10.4c-0.1-0.3,0.1-0.5,0.3-0.6
		c0.2-0.1,0.5,0,0.6,0.3c0,0,0,0,0,0c1.2,3.4,0.9,10.5,0.9,10.8C245.5,210.6,245.3,210.8,245,210.8z"></path><path class="st0" d="M205.8,205.2c1.2-0.4,59.7,8.9,59.7,8.9l-1.2,62.6l-75.4-11.4L205.8,205.2z"></path><path class="st1" d="M264.3,277.3L264.3,277.3l-75.5-11.4c-0.1,0-0.3-0.1-0.3-0.2c-0.1-0.1-0.1-0.3-0.1-0.4l16.9-60.1
		c0-0.2,0.2-0.3,0.3-0.3c1.2-0.4,46.2,6.7,60,8.9c0.2,0,0.4,0.3,0.4,0.5l-1.2,62.6c0,0.1-0.1,0.3-0.2,0.4
		C264.6,277.2,264.4,277.3,264.3,277.3z M189.5,265l74.3,11.2l1.2-61.6c-22.3-3.5-55.1-8.6-58.8-8.8L189.5,265z"></path><path class="st1" d="M237.6,108c-0.3,0-0.5,0-0.5,0c-0.3,0-0.5-0.3-0.4-0.6c0-0.3,0.3-0.5,0.6-0.4c0.2,0,5.8,0.7,7.6-7.2
		c0.1-0.3,0.3-0.4,0.6-0.4c0,0,0,0,0,0c0.3,0.1,0.4,0.3,0.4,0.6c0,0,0,0,0,0C244.1,107.4,239.1,108,237.6,108z"></path><path class="st0" d="M289.7,259.7c-0.2,0-0.4-0.1-0.4-0.4l-7.5-33c-0.1-0.2,0.1-0.5,0.3-0.5c0.2-0.1,0.5,0.1,0.5,0.3c0,0,0,0,0,0
		l7.5,33c0.1,0.2-0.1,0.5-0.3,0.5c0,0,0,0,0,0L289.7,259.7z"></path><path class="st0" d="M287.5,234.9c-0.1,0-0.2,0-0.3-0.1c-0.2-0.2-0.2-0.4,0-0.6c0-0.1,4.4-5.2,3.6-10.5c0-0.2,0.1-0.5,0.4-0.5
		c0.2,0,0.5,0.1,0.5,0.4c0,0,0,0,0,0c0.8,5.8-3.7,11-3.9,11.2C287.7,234.8,287.6,234.9,287.5,234.9z"></path></g></svg>